# xmcd CD database file
#
# Track frame offsets:
#	150
#	64200
#	140630
#	145640
#	163030
#	176641
#
# Disc length: 2514 seconds
#
# Revision: 3
# Processed by: cddbd v1.5.2PL0 Copyright (c) Steve Scherf et al.
# Submitted via: CDex 1.70beta2
#
DISCID=5509d006
DTITLE=Chuck Mangione - Children of Sanchez
DYEAR=1978
DGENRE=Jazz
TTITLE0=Children of Sanchez Overture
TTITLE1=Consuelo's Love Theme
TTITLE2=Fanfare
TTITLE3=Lullabye
TTITLE4=Pilgrimage 1
TTITLE5=Pilgrimage 2
EXTD=YEAR: 1978
EXTT0=
EXTT1=
EXTT2=
EXTT3=
EXTT4=
EXTT5=
PLAYORDER=
